PathFileType	4	(X/Y/Z)	 New Session 104.trc
DataRate	CameraRate	NumFrames	NumMarkers	Units	OrigDataRate	OrigDataStartFrame	OrigNumFrames
100	100	27	14	m	100	578	660
Frame#	Time	C7			T8			IJ			PX			AA			AC			AI			TS			SC			GH			LE			ME			US			RS			
		X1	Y1	Z1	X2	Y2	Z2	X3	Y3	Z3	X4	Y4	Z4	X5	Y5	Z5	X6	Y6	Z6	X7	Y7	Z7	X8	Y8	Z8	X9	Y9	Z9	X10	Y10	Z10	X11	Y11	Z11	X12	Y12	Z12	X13	Y13	Z13	X14	Y14	Z14	
578	5.7800	-0.001774	0.102697	0.167377	0.017251	-0.116611	0.234197	-0.005530	0.008083	0.004643	-0.015750	-0.137181	-0.067012	0.212737	0.005603	0.121259	0.155406	0.052665	0.061265	0.096822	0.023075	0.195520	0.101983	-0.094129	0.222125	0.019406	0.016431	0.009162	0.221314	0.020895	0.080786	0.261323	-0.274125	0.008904	0.174510	-0.296033	-0.016616	0.291167	-0.538674	-0.083472	0.352448	-0.503423	-0.114374	
579	5.7900	-0.001757	0.102694	0.167470	0.017279	-0.116612	0.234248	-0.005416	0.008126	0.004667	-0.015587	-0.137204	-0.066993	0.212794	0.005564	0.121362	0.155502	0.052695	0.061327	0.096836	0.023059	0.195611	0.101992	-0.094126	0.222210	0.019529	0.016439	0.009179	0.221363	0.020870	0.080905	0.261400	-0.274172	0.009002	0.174673	-0.296064	-0.016574	0.291285	-0.538692	-0.083969	0.352656	-0.503350	-0.114381	
580	5.8000	-0.001736	0.102684	0.167551	0.017306	-0.116614	0.234286	-0.005269	0.008177	0.004678	-0.015408	-0.137225	-0.066977	0.212853	0.005529	0.121458	0.155583	0.052713	0.061399	0.096864	0.023037	0.195702	0.101990	-0.094129	0.222294	0.019679	0.016435	0.009183	0.221399	0.020839	0.081001	0.261470	-0.274218	0.009079	0.174893	-0.296083	-0.016516	0.291391	-0.538705	-0.084430	0.352847	-0.503276	-0.114413	
581	5.8100	-0.001709	0.102669	0.167619	0.017333	-0.116618	0.234306	-0.005084	0.008235	0.004676	-0.015228	-0.137239	-0.066958	0.212904	0.005499	0.121548	0.155655	0.052723	0.061469	0.096907	0.023016	0.195782	0.101988	-0.094135	0.222374	0.019831	0.016443	0.009191	0.221436	0.020812	0.081095	0.261550	-0.274245	0.009128	0.175153	-0.296101	-0.016461	0.291499	-0.538702	-0.084798	0.353025	-0.503198	-0.114473	
582	5.8200	-0.001683	0.102653	0.167679	0.017360	-0.116624	0.234305	-0.004889	0.008287	0.004670	-0.015057	-0.137247	-0.066936	0.212944	0.005472	0.121629	0.155722	0.052732	0.061527	0.096954	0.023000	0.195849	0.101999	-0.094140	0.222444	0.019965	0.016467	0.009208	0.221484	0.020794	0.081190	0.261644	-0.274241	0.009148	0.175388	-0.296124	-0.016444	0.291616	-0.538681	-0.085053	0.353193	-0.503115	-0.114558	
583	5.8300	-0.001665	0.102643	0.167737	0.017391	-0.116630	0.234290	-0.004727	0.008314	0.004675	-0.014903	-0.137256	-0.066912	0.212974	0.005449	0.121701	0.155789	0.052748	0.061570	0.096994	0.022994	0.195909	0.102037	-0.094141	0.222500	0.020077	0.016492	0.009229	0.221541	0.020787	0.081282	0.261754	-0.274204	0.009144	0.175541	-0.296155	-0.016494	0.291742	-0.538645	-0.085206	0.353352	-0.503031	-0.114653	
584	5.8400	-0.001650	0.102637	0.167790	0.017426	-0.116634	0.234268	-0.004633	0.008308	0.004706	-0.014771	-0.137275	-0.066894	0.213000	0.005423	0.121764	0.155863	0.052770	0.061600	0.097020	0.022989	0.195966	0.102106	-0.094139	0.222542	0.020172	0.016503	0.009253	0.221596	0.020782	0.081363	0.261874	-0.274151	0.009120	0.175596	-0.296188	-0.016619	0.291872	-0.538601	-0.085285	0.353504	-0.502953	-0.114745	
585	5.8500	-0.001628	0.102628	0.167836	0.017466	-0.116637	0.234245	-0.004612	0.008273	0.004764	-0.014657	-0.137306	-0.066892	0.213027	0.005393	0.121818	0.155942	0.052790	0.061628	0.097035	0.022980	0.196020	0.102199	-0.094135	0.222573	0.020256	0.016496	0.009275	0.221645	0.020769	0.081426	0.262000	-0.274109	0.009087	0.175608	-0.296219	-0.016785	0.292000	-0.538554	-0.085325	0.353654	-0.502883	-0.114824	
586	5.8600	-0.001599	0.102608	0.167875	0.017512	-0.116640	0.234232	-0.004631	0.008232	0.004827	-0.014545	-0.137344	-0.066906	0.213059	0.005357	0.121864	0.156014	0.052794	0.061671	0.097051	0.022965	0.196067	0.102291	-0.094132	0.222602	0.020330	0.016480	0.009292	0.221692	0.020744	0.081477	0.262129	-0.274099	0.009057	0.175637	-0.296239	-0.016935	0.292123	-0.538509	-0.085356	0.353803	-0.502823	-0.114889	
587	5.8700	-0.001564	0.102582	0.167905	0.017566	-0.116646	0.234233	-0.004639	0.008211	0.004864	-0.014435	-0.137376	-0.066919	0.213095	0.005316	0.121907	0.156062	0.052776	0.061743	0.097076	0.022948	0.196103	0.102360	-0.094129	0.222633	0.020393	0.016462	0.009303	0.221748	0.020709	0.081527	0.262252	-0.274120	0.009035	0.175703	-0.296242	-0.017032	0.292239	-0.538467	-0.085401	0.353951	-0.502770	-0.114947	
588	5.8800	-0.001526	0.102558	0.167926	0.017624	-0.116655	0.234246	-0.004620	0.008215	0.004866	-0.014339	-0.137394	-0.066918	0.213134	0.005270	0.121949	0.156080	0.052736	0.061851	0.097108	0.022930	0.196129	0.102405	-0.094127	0.222665	0.020454	0.016448	0.009306	0.221813	0.020670	0.081583	0.262360	-0.274151	0.009022	0.175795	-0.296234	-0.017083	0.292351	-0.538427	-0.085476	0.354098	-0.502721	-0.115008	
589	5.8900	-0.001486	0.102542	0.167937	0.017681	-0.116665	0.234259	-0.004583	0.008231	0.004849	-0.014257	-0.137400	-0.066909	0.213176	0.005217	0.121990	0.156081	0.052680	0.061985	0.097140	0.022908	0.196154	0.102441	-0.094130	0.222691	0.020524	0.016439	0.009297	0.221877	0.020626	0.081647	0.262466	-0.274166	0.009013	0.175890	-0.296230	-0.017124	0.292464	-0.538387	-0.085585	0.354241	-0.502671	-0.115083	
590	5.9000	-0.001450	0.102535	0.167939	0.017733	-0.116673	0.234258	-0.004536	0.008254	0.004822	-0.014178	-0.137401	-0.066907	0.213218	0.005155	0.122033	0.156088	0.052612	0.062121	0.097164	0.022884	0.196181	0.102485	-0.094142	0.222706	0.020606	0.016432	0.009278	0.221934	0.020579	0.081713	0.262585	-0.274159	0.009000	0.175975	-0.296244	-0.017191	0.292584	-0.538346	-0.085727	0.354379	-0.502618	-0.115177	
591	5.9100	-0.001423	0.102532	0.167937	0.017776	-0.116675	0.234233	-0.004476	0.008291	0.004788	-0.014087	-0.137406	-0.066919	0.213257	0.005083	0.122081	0.156111	0.052532	0.062250	0.097180	0.022858	0.196212	0.102534	-0.094161	0.222714	0.020693	0.016422	0.009253	0.221989	0.020531	0.081784	0.262719	-0.274139	0.008972	0.176041	-0.296277	-0.017297	0.292717	-0.538305	-0.085899	0.354511	-0.502561	-0.115293	
592	5.9200	-0.001401	0.102528	0.167933	0.017810	-0.116671	0.234196	-0.004412	0.008342	0.004750	-0.013978	-0.137418	-0.066941	0.213291	0.005001	0.122142	0.156153	0.052446	0.062362	0.097194	0.022825	0.196245	0.102581	-0.094183	0.222721	0.020774	0.016409	0.009228	0.222045	0.020478	0.081863	0.262849	-0.274124	0.008915	0.176084	-0.296317	-0.017431	0.292868	-0.538265	-0.086095	0.354642	-0.502499	-0.115427	
593	5.9300	-0.001377	0.102519	0.167923	0.017840	-0.116663	0.234159	-0.004365	0.008389	0.004710	-0.013861	-0.137438	-0.066958	0.213317	0.004911	0.122218	0.156209	0.052353	0.062456	0.097206	0.022781	0.196274	0.102621	-0.094206	0.222732	0.020841	0.016396	0.009202	0.222104	0.020421	0.081956	0.262962	-0.274127	0.008822	0.176105	-0.296350	-0.017570	0.293038	-0.538228	-0.086309	0.354775	-0.502434	-0.115579	
594	5.9400	-0.001344	0.102509	0.167899	0.017867	-0.116653	0.234127	-0.004336	0.008411	0.004663	-0.013752	-0.137466	-0.066965	0.213336	0.004817	0.122305	0.156267	0.052242	0.062540	0.097208	0.022728	0.196299	0.102649	-0.094227	0.222747	0.020893	0.016388	0.009172	0.222167	0.020360	0.082067	0.263057	-0.274146	0.008705	0.176092	-0.296373	-0.017694	0.293223	-0.538197	-0.086537	0.354912	-0.502364	-0.115750	
595	5.9500	-0.001300	0.102498	0.167859	0.017892	-0.116645	0.234099	-0.004316	0.008405	0.004605	-0.013660	-0.137501	-0.066964	0.213352	0.004722	0.122393	0.156319	0.052108	0.062620	0.097199	0.022674	0.196315	0.102665	-0.094246	0.222763	0.020944	0.016377	0.009133	0.222230	0.020296	0.082193	0.263152	-0.274172	0.008589	0.176039	-0.296393	-0.017789	0.293415	-0.538171	-0.086775	0.355057	-0.502291	-0.115942	
596	5.9600	-0.001257	0.102490	0.167808	0.017917	-0.116639	0.234071	-0.004294	0.008383	0.004535	-0.013595	-0.137537	-0.066966	0.213367	0.004629	0.122472	0.156370	0.051978	0.062694	0.097184	0.022624	0.196320	0.102671	-0.094269	0.222778	0.020999	0.016361	0.009083	0.222285	0.020229	0.082320	0.263262	-0.274193	0.008503	0.175998	-0.296416	-0.017826	0.293607	-0.538148	-0.087022	0.355212	-0.502212	-0.116158	
597	5.9700	-0.001223	0.102479	0.167750	0.017942	-0.116633	0.234039	-0.004264	0.008372	0.004452	-0.013558	-0.137573	-0.066977	0.213381	0.004534	0.122536	0.156430	0.051894	0.062752	0.097169	0.022580	0.196315	0.102671	-0.094299	0.222789	0.021047	0.016338	0.009019	0.222329	0.020159	0.082427	0.263383	-0.274216	0.008450	0.176063	-0.296434	-0.017771	0.293795	-0.538122	-0.087280	0.355382	-0.502128	-0.116401	
598	5.9800	-0.001201	0.102464	0.167685	0.017968	-0.116621	0.234004	-0.004221	0.008380	0.004360	-0.013532	-0.137607	-0.066996	0.213397	0.004436	0.122583	0.156494	0.051853	0.062791	0.097161	0.022540	0.196305	0.102669	-0.094335	0.222793	0.021080	0.016305	0.008950	0.222370	0.020087	0.082507	0.263502	-0.274248	0.008409	0.176272	-0.296441	-0.017628	0.293979	-0.538091	-0.087550	0.355567	-0.502037	-0.116669	
599	5.9900	-0.001186	0.102442	0.167617	0.017994	-0.116602	0.233965	-0.004167	0.008391	0.004268	-0.013493	-0.137638	-0.067029	0.213417	0.004336	0.122618	0.156553	0.051811	0.062820	0.097159	0.022503	0.196287	0.102668	-0.094372	0.222786	0.021111	0.016259	0.008883	0.222418	0.020013	0.082566	0.263609	-0.274292	0.008359	0.176563	-0.296445	-0.017456	0.294159	-0.538049	-0.087836	0.355766	-0.501938	-0.116953	
600	6.0000	-0.001165	0.102421	0.167544	0.018017	-0.116575	0.233920	-0.004110	0.008385	0.004184	-0.013438	-0.137668	-0.067078	0.213441	0.004238	0.122648	0.156599	0.051730	0.062845	0.097160	0.022466	0.196258	0.102670	-0.094403	0.222769	0.021157	0.016204	0.008825	0.222477	0.019936	0.082614	0.263707	-0.274337	0.008298	0.176836	-0.296449	-0.017304	0.294341	-0.537995	-0.088139	0.355972	-0.501832	-0.117239	
601	6.0100	-0.001132	0.102406	0.167462	0.018038	-0.116546	0.233872	-0.004069	0.008340	0.004114	-0.013380	-0.137703	-0.067139	0.213468	0.004150	0.122673	0.156634	0.051610	0.062867	0.097159	0.022427	0.196214	0.102675	-0.094423	0.222744	0.021219	0.016148	0.008771	0.222538	0.019853	0.082655	0.263803	-0.274373	0.008229	0.177048	-0.296448	-0.017179	0.294527	-0.537929	-0.088460	0.356179	-0.501722	-0.117514	
602	6.0200	-0.001095	0.102398	0.167367	0.018060	-0.116521	0.233823	-0.004063	0.008245	0.004048	-0.013326	-0.137742	-0.067201	0.213499	0.004073	0.122694	0.156664	0.051473	0.062883	0.097157	0.022387	0.196155	0.102683	-0.094430	0.222713	0.021274	0.016095	0.008706	0.222587	0.019768	0.082687	0.263898	-0.274397	0.008153	0.177213	-0.296435	-0.017076	0.294720	-0.537855	-0.088798	0.356387	-0.501610	-0.117775	
603	6.0300	-0.001068	0.102397	0.167260	0.018082	-0.116505	0.233776	-0.004105	0.008111	0.003978	-0.013279	-0.137789	-0.067260	0.213529	0.004002	0.122707	0.156694	0.051344	0.062887	0.097149	0.022352	0.196084	0.102687	-0.094431	0.222677	0.021301	0.016044	0.008623	0.222616	0.019687	0.082707	0.263986	-0.274411	0.008066	0.177360	-0.296420	-0.017048	0.294921	-0.537777	-0.089144	0.356595	-0.501498	-0.118026	
604	6.0400	-0.001061	0.102402	0.167146	0.018107	-0.116496	0.233724	-0.004175	0.007987	0.003897	-0.013237	-0.137848	-0.067321	0.213553	0.003932	0.122710	0.156733	0.051258	0.062874	0.097136	0.022322	0.196009	0.102685	-0.094431	0.222635	0.021305	0.015986	0.008538	0.222627	0.019616	0.082717	0.264060	-0.274417	0.007963	0.177494	-0.296418	-0.017211	0.295131	-0.537697	-0.089491	0.356806	-0.501387	-0.118274	
